<svg width="78" height="61" viewBox="0 0 78 61" fill="none" xmlns="http://www.w3.org/2000/svg">
<path d="M17.84 0.639997C21.52 0.639997 24.8 1.12 27.68 2.08C30.56 2.98666 32.96 4.32 34.88 6.08C36.8533 7.78666 38.3467 9.86666 39.36 12.32C40.3733 14.72 40.88 17.44 40.88 20.48C40.88 22.88 40.5067 25.28 39.76 27.68C39.0667 30.08 37.8933 32.2667 36.24 34.24C34.64 36.2133 32.5067 37.8133 29.84 39.04C27.1733 40.2133 23.8667 40.8 19.92 40.8H11.6V59.52H0V0.639997H17.84ZM19.84 29.6C21.6 29.6 23.0667 29.3067 24.24 28.72C25.4133 28.1333 26.32 27.3867 26.96 26.48C27.6533 25.5733 28.1333 24.64 28.4 23.68C28.72 22.6667 28.88 21.7333 28.88 20.88C28.88 20.24 28.7733 19.44 28.56 18.48C28.4 17.4667 28.0267 16.4533 27.44 15.44C26.8533 14.4267 25.9467 13.5733 24.72 12.88C23.5467 12.1867 21.9467 11.84 19.92 11.84H11.6V29.6H19.84ZM30.72 36.8L45.28 59.52H31.76L16.88 37.12L30.72 36.8Z" fill="white"/>
<path d="M77.7725 54.64C77.1325 55.1733 75.9325 55.8933 74.1725 56.8C72.4658 57.7067 70.3592 58.5067 67.8525 59.2C65.3458 59.8933 62.5725 60.2133 59.5325 60.16C54.8925 60.0533 50.7325 59.2267 47.0525 57.68C43.4258 56.08 40.3325 53.92 37.7725 51.2C35.2658 48.48 33.3458 45.36 32.0125 41.84C30.6792 38.32 30.0125 34.56 30.0125 30.56C30.0125 26.08 30.6792 21.9733 32.0125 18.24C33.3992 14.5067 35.3458 11.28 37.8525 8.56C40.4125 5.84 43.4525 3.73333 46.9725 2.24C50.4925 0.746667 54.3858 0 58.6525 0C62.5992 0 66.0925 0.533333 69.1325 1.6C72.1725 2.66666 74.6525 3.81333 76.5725 5.04L72.0125 16C70.6792 14.9867 68.8925 13.9467 66.6525 12.88C64.4658 11.76 61.9325 11.2 59.0525 11.2C56.8125 11.2 54.6525 11.68 52.5725 12.64C50.5458 13.5467 48.7325 14.8533 47.1325 16.56C45.5858 18.2667 44.3592 20.2667 43.4525 22.56C42.5458 24.8 42.0925 27.2533 42.0925 29.92C42.0925 32.7467 42.4925 35.3333 43.2925 37.68C44.1458 40.0267 45.3458 42.0533 46.8925 43.76C48.4392 45.4133 50.2792 46.6933 52.4125 47.6C54.5992 48.5067 57.0525 48.96 59.7725 48.96C62.9192 48.96 65.6125 48.4533 67.8525 47.44C70.0925 46.4267 71.7992 45.36 72.9725 44.24L77.7725 54.64Z" fill="white"/>
</svg>
